<svg xmlns="http://www.w3.org/2000/svg" xmlns:xlink="http://www.w3.org/1999/xlink" width="145" height="146"><defs><ellipse id="a" cx="72.3" cy="73" rx="72.3" ry="72"/><path d="M72 1c9 0 17 1 24 4h26v16c14 13 23 31 23 52A72 72 0 1124 19V5h25c7-3 15-4 23-4z" id="b"/></defs><g fill="none" fill-rule="evenodd"><ellipse cx="72.3" cy="72" rx="72.3" ry="72" transform="translate(0 1)" fill="#EAF1F4"/><ellipse cx="72.3" cy="72" rx="72.3" ry="72" transform="translate(0 1)" fill="#EAF1F4"/><mask id="c" fill="#fff"><use xlink:href="#b"/></mask><g mask="url(#c)"><rect width="94.2" height="140" rx="5.4" transform="translate(27 5)"/></g><rect stroke="#EAF1F4" stroke-width=".5" fill="#FFF" mask="url(#c)" x="28" y="5" width="93.7" height="139.5" rx="5.4"/><rect fill="#ACE1FF" mask="url(#c)" x="66" y="14" width="17.4" height="1.7" rx=".9"/><rect fill="#EAF1F4" mask="url(#c)" x="37" y="22" width="75" height="123.5" rx="5.4"/><circle fill="#ACE1FF" mask="url(#c)" cx="43" cy="53.1" r="3.5"/><circle fill="#ACE1FF" mask="url(#c)" cx="43" cy="100.6" r="3.5"/><path d="M52 35h31c1 0 3 2 3 4v13c0 2-2 3-3 3H49V39c0-2 1-4 3-4zm0 55h31l3 3v8c0 2-2 3-3 3H49V93c0-1 1-3 3-3z" fill="#7CB5FA" fill-rule="nonzero" mask="url(#c)"/><path d="M73 63h30c2 0 4 2 4 3v14c0 2-2 3-4 3H70V66c0-1 1-3 3-3zM73 112h30c2 0 4 1 4 3v8c0 2-2 3-4 3H70v-11c0-2 1-3 3-3z" fill="#D07AFF" mask="url(#c)" transform="matrix(-1 0 0 1 177 0)"/></g></svg>